<?xml version="1.0" encoding="UTF-8"?>
<svg version="1.1" xmlns="http://www.w3.org/2000/svg" width="500" height="500">
<path d="M0 0 C165 0 330 0 500 0 C500 165 500 330 500 500 C335 500 170 500 0 500 C0 335 0 170 0 0 Z " fill="#000000" transform="translate(0,0)"/>
<path d="M0 0 C0.80062866 -0.00100708 1.60125732 -0.00201416 2.42614746 -0.00305176 C43.50115075 0.03182537 43.50115075 0.03182537 59.9375 8.25 C59.9375 19.47 59.9375 30.69 59.9375 42.25 C57.2975 40.27 54.6575 38.29 51.9375 36.25 C49.93135122 35.10222783 47.89182616 34.0091663 45.8125 33 C44.35457031 32.28070313 44.35457031 32.28070313 42.8671875 31.546875 C23.85055431 23.12884537 -2.32399792 22.23776604 -22.03759766 28.91943359 C-24.19224855 29.72314944 -24.19224855 29.72314944 -27.0625 31.25 C-27.3925 32.24 -27.7225 33.23 -28.0625 34.25 C-27.36125 34.28738281 -26.66 34.32476562 -25.9375 34.36328125 C-24.98875 34.42902344 -24.04 34.49476563 -23.0625 34.5625 C-22.134375 34.62050781 -21.20625 34.67851562 -20.25 34.73828125 C-17.0625 35.25 -17.0625 35.25 -9.0625 38.25 C-9.0625 50.13 -9.0625 62.01 -9.0625 74.25 C-10.7125 72.6 -12.3625 70.95 -14.0625 69.25 C-16.06530013 67.73609349 -16.06530013 67.73609349 -18.0625 66.5625 C-18.701875 66.16675781 -19.34125 65.77101563 -20 65.36328125 C-22.26399252 64.14123983 -24.67376072 63.20549571 -27.0625 62.25 C-27.3925 72.15 -27.7225 82.05 -28.0625 92.25 C-26.4125 92.58 -24.7625 92.91 -23.0625 93.25 C-15.03835358 97.52276259 -10.08444301 103.20611399 -6.0625 111.25 C-3.0925 111.745 -3.0925 111.745 -0.0625 112.25 C-0.0625 96.74 -0.0625 81.23 -0.0625 65.25 C1.9175 65.25 3.8975 65.25 5.9375 65.25 C5.9375 80.76 5.9375 96.27 5.9375 112.25 C15.8375 111.26 15.8375 111.26 25.9375 110.25 C25.86333087 105.23207484 25.7803541 100.21587759 25.67504883 95.19873047 C25.64189364 93.49374488 25.61383263 91.78865202 25.59106445 90.08349609 C25.55734432 87.62551366 25.50502206 85.16850594 25.44921875 82.7109375 C25.43963387 81.57620499 25.43963387 81.57620499 25.42985535 80.41854858 C25.26828047 74.53896565 23.98729541 70.27501377 19.67578125 66.015625 C16.55338576 64.00232577 13.69508955 63.0097223 10.125 62 C8.96355469 61.66484375 7.80210937 61.3296875 6.60546875 60.984375 C5.72503906 60.74203125 4.84460938 60.4996875 3.9375 60.25 C3.9375 59.92 3.9375 59.59 3.9375 59.25 C22.4175 59.25 40.8975 59.25 59.9375 59.25 C59.9375 82.35 59.9375 105.45 59.9375 129.25 C40.85286173 134.45490135 25.13972792 137.7096278 5.9375 137.25 C5.9375 140.55 5.9375 143.85 5.9375 147.25 C3.9575 147.25 1.9775 147.25 -0.0625 147.25 C-0.0625 143.95 -0.0625 140.65 -0.0625 137.25 C-2.0425 137.25 -4.0225 137.25 -6.0625 137.25 C-6.19785156 137.806875 -6.33320313 138.36375 -6.47265625 138.9375 C-8.99865193 147.8919278 -14.45170548 153.95677506 -22.28515625 158.87109375 C-37.0928097 166.22285418 -53.29201412 167.66181059 -69.5625 167.625 C-70.38332062 167.62512085 -71.20414124 167.6252417 -72.04983521 167.62536621 C-84.44846719 167.59964756 -96.68282824 166.91114534 -109 165.5 C-109.70672852 165.42158875 -110.41345703 165.34317749 -111.14160156 165.26239014 C-121.17647755 164.11936606 -130.12736301 161.89936986 -140.0625 159.25 C-140.0625 147.7 -140.0625 136.15 -140.0625 124.25 C-137.4225 126.23 -134.7825 128.21 -132.0625 130.25 C-112.92012428 141.2055492 -89.75351503 141.36111592 -68.25 141.5625 C-66.65043457 141.58896606 -66.65043457 141.58896606 -65.01855469 141.6159668 C-58.18682832 141.61004955 -52.48521459 140.537113 -46.0625 138.25 C-44.5775 137.816875 -44.5775 137.816875 -43.0625 137.375 C-40.34307621 135.84532412 -39.90938617 134.17560677 -39.0625 131.25 C-40.320625 130.899375 -41.57875 130.54875 -42.875 130.1875 C-52.58994007 126.89842938 -59.71467998 121.14534625 -66.28515625 113.38671875 C-70.27806758 110.3148165 -74.14491901 109.90361083 -79.0625 109.25 C-79.96025146 109.13003662 -80.85800293 109.01007324 -81.78295898 108.88647461 C-84.60342248 108.53145298 -87.42634286 108.20354847 -90.25 107.875 C-105.30395457 105.99733362 -121.96591452 103.59878061 -133.0625 92.25 C-138.7277342 84.06540282 -140.25542939 78.28761037 -140.3125 68.5 C-140.333125 67.63117188 -140.35375 66.76234375 -140.375 65.8671875 C-140.43043907 56.63658285 -137.97740446 50.17040693 -131.6171875 43.42578125 C-117.7549732 31.61958345 -98.93615532 30.03748675 -81.5 30.1875 C-79.98696289 30.19426758 -79.98696289 30.19426758 -78.44335938 30.20117188 C-75.98300853 30.21283231 -73.52278761 30.22919622 -71.0625 30.25 C-70.82402344 29.52554688 -70.58554688 28.80109375 -70.33984375 28.0546875 C-65.58930165 17.6238336 -53.35620839 10.37682271 -43.1875 6 C-29.09388136 0.77099818 -14.85164607 0.01291381 0 0 Z " fill="#FCFCFC" transform="translate(295.0625,171.75)"/>
<path d="M0 0 C0 8.58 0 17.16 0 26 C-8.36069334 26 -16.03301258 25.56687421 -23.1875 20.9375 C-26.38018141 17.52463366 -26.34926924 14.76997618 -26.26953125 10.25390625 C-25.84851377 6.73322386 -24.68041043 5.27834886 -22 3 C-14.82755789 -0.85186706 -8.03116934 -0.23166835 0 0 Z " fill="#040404" transform="translate(215,227)"/>
<path d="M0 0 C1.47968324 0.14049518 2.95874516 0.28754826 4.4375 0.4375 C5.67306641 0.55931641 5.67306641 0.55931641 6.93359375 0.68359375 C9 1 9 1 10 2 C10.08783542 4.21855264 10.10694609 6.43988496 10.09765625 8.66015625 C10.0962413 9.32462265 10.09482635 9.98908905 10.09336853 10.6736908 C10.08775518 12.80333899 10.07520054 14.93288339 10.0625 17.0625 C10.05748671 18.50325369 10.05292351 19.94400903 10.04882812 21.38476562 C10.03778145 24.92321102 10.02050792 28.46159539 10 32 C6.6171875 31.66015625 6.6171875 31.66015625 3 31 C-2.20793481 23.88248909 -1.39592255 13.44246616 -1 5 C-0.70318912 3.32644325 -0.38152421 1.65629954 0 0 Z " fill="#0C0C0C" transform="translate(249,229)"/>
</svg>
